<svg xmlns="http://www.w3.org/2000/svg" viewBox="0 0 1330 470"><defs><linearGradient id="g" x1="70" y1="70" x2="440" y2="450" gradientUnits="userSpaceOnUse">
<stop offset="0" stop-color="#3DBBFF"/><stop offset=".55" stop-color="#1F7BFF"/><stop offset="1" stop-color="#1646E0"/></linearGradient></defs><g transform="translate(0 0) scale(1)"><defs><mask id="m" maskUnits="userSpaceOnUse" x="0" y="0" width="512" height="512"><rect width="512" height="512" fill="#fff"/><rect x="0" y="205" width="270" height="14" fill="#000"/><rect x="0" y="293" width="270" height="14" fill="#000"/></mask></defs>
<g fill="none" stroke="url(#g)" stroke-width="64">
<path mask="url(#m)" d="M366.4 141A150 150 0 1 0 308.8 400.9"/>
</g>
<g fill="url(#g)"><circle cx="58" cy="212" r="15"/><circle cx="96" cy="212" r="0"/><circle cx="40" cy="300" r="11"/><circle cx="76" cy="352" r="9"/><circle cx="70" cy="120" r="8"/><circle cx="120" cy="84" r="5"/></g>
<g fill="none" stroke="url(#g)" stroke-width="52" stroke-linecap="butt" stroke-linejoin="round">
<path d="M290 256H372V320"/>
</g>
<polygon points="322,316 422,316 372,374" fill="url(#g)" stroke="url(#g)" stroke-width="16" stroke-linejoin="round"/></g><g transform="translate(460 -380)"><path fill="#FFFFFF" d="M83.98 757.2Q67.60000000000001 757.2 53.56 751.74Q39.52 746.28 29.51 736.53Q19.5 726.78 15.08 713.52L51.22 700.78Q54.08 710.66 62.92 716.38Q71.76 722.1 83.98 722.1Q93.60000000000001 722.1 100.62 718.59Q107.64 715.08 111.41 708.3199999999999Q115.18 701.56 115.18 692.46V659.96L122.72 669.32Q115.44 681.28 104.0 687.13Q92.56 692.98 77.22 692.98Q57.46 692.98 41.86 684.01Q26.26 675.04 17.42 659.31Q8.58 643.58 8.58 623.56Q8.58 603.54 17.42 588.0699999999999Q26.26 572.6 41.6 563.76Q56.940000000000005 554.92 76.44 554.92Q91.78 554.92 103.22 561.03Q114.66000000000001 567.14 122.72 579.62L117.78 588.98V558.04H154.18V692.46Q154.18 711.18 145.08 725.8699999999999Q135.98000000000002 740.56 120.25000000000001 748.88Q104.52000000000001 757.2 83.98 757.2ZM82.68 657.62Q92.56 657.62 99.84 653.46Q107.12 649.3 111.15 641.76Q115.18 634.22 115.18 624.08Q115.18 613.94 111.02000000000001 606.27Q106.86 598.6 99.58 594.31Q92.3 590.02 82.68 590.02Q72.8 590.02 65.13 594.31Q57.46 598.6 53.17 606.27Q48.88 613.94 48.88 624.08Q48.88 633.96 53.17 641.5Q57.46 649.04 65.13 653.3299999999999Q72.8 657.62 82.68 657.62Z M177.58000000000004 700.0V558.04H213.98000000000002V592.1L211.38000000000002 587.16Q216.06000000000003 569.22 226.85000000000002 562.85Q237.64000000000004 556.48 252.46000000000004 556.48H260.78000000000003V590.28H248.56000000000003Q234.26000000000005 590.28 225.42000000000004 598.99Q216.58000000000004 607.7 216.58000000000004 623.56V700.0Z M316.68000000000006 703.12Q301.34000000000003 703.12 290.1600000000001 698.1800000000001Q278.9800000000001 693.24 273.00000000000006 684.01Q267.02000000000004 674.78 267.02000000000004 662.04Q267.02000000000004 650.08 272.48 640.85Q277.94000000000005 631.62 289.25000000000006 625.38Q300.56000000000006 619.14 317.46000000000004 616.54L360.88000000000005 609.52V638.12L324.4800000000001 644.62Q316.1600000000001 646.18 311.74000000000007 649.95Q307.32000000000005 653.72 307.32000000000005 660.74Q307.32000000000005 667.24 312.26000000000005 670.88Q317.20000000000005 674.52 324.4800000000001 674.52Q334.1 674.52 341.38000000000005 670.36Q348.6600000000001 666.2 352.69000000000005 659.05Q356.72 651.9 356.72 643.32V606.4Q356.72 598.34 350.35 592.88Q343.9800000000001 587.42 333.06000000000006 587.42Q322.6600000000001 587.42 314.7300000000001 593.14Q306.80000000000007 598.86 303.1600000000001 608.22L271.96000000000004 593.4Q276.12000000000006 581.44 285.22 572.86Q294.32000000000005 564.28 307.06000000000006 559.5999999999999Q319.80000000000007 554.92 334.88000000000005 554.92Q352.82000000000005 554.92 366.6 561.42Q380.38000000000005 567.92 388.05000000000007 579.49Q395.72 591.06 395.72 606.4V700.0H359.32000000000005V677.12L368.1600000000001 675.56Q361.9200000000001 684.92 354.38000000000005 691.03Q346.84000000000003 697.14 337.48 700.13Q328.12000000000006 703.12 316.68000000000006 703.12Z M498.68000000000006 703.12Q484.12000000000006 703.12 471.7700000000001 697.79Q459.4200000000001 692.46 451.88000000000005 682.06L455.52000000000004 674.0V700.0H419.12000000000006V503.18H458.12000000000006V585.08L452.14000000000004 577.28Q459.1600000000001 566.62 471.25000000000006 560.77Q483.34000000000003 554.92 498.94000000000005 554.92Q519.22 554.92 535.6 564.8Q551.98 574.68 561.6 591.45Q571.22 608.22 571.22 629.02Q571.22 649.56 561.73 666.46Q552.24 683.36 535.86 693.24Q519.48 703.12 498.68000000000006 703.12ZM494.00000000000006 668.02Q504.9200000000001 668.02 513.24 663.0799999999999Q521.5600000000001 658.14 526.24 649.3Q530.9200000000001 640.46 530.9200000000001 629.02Q530.9200000000001 617.58 526.24 608.87Q521.5600000000001 600.16 513.24 595.0899999999999Q504.9200000000001 590.02 494.00000000000006 590.02Q483.6 590.02 475.41 594.96Q467.22 599.9 462.6700000000001 608.74Q458.12000000000006 617.58 458.12000000000006 629.02Q458.12000000000006 640.46 462.6700000000001 649.3Q467.22 658.14 475.41 663.0799999999999Q483.6 668.02 494.00000000000006 668.02Z"/><path fill="#4FB6FF" d="M588.9000000000001 700.0V558.04H625.3000000000002V586.12L623.2200000000001 579.88Q628.1600000000001 567.14 639.21 561.03Q650.2600000000001 554.92 665.0800000000002 554.92Q681.2000000000002 554.92 693.2900000000002 561.6800000000001Q705.3800000000001 568.44 712.1400000000001 580.53Q718.9000000000001 592.62 718.9000000000001 608.8186046511628V700.0H679.9000000000001V617.06Q679.9000000000001 608.74 676.6500000000001 602.76Q673.4000000000001 596.78 667.5257931034484 593.4Q661.6515862068967 590.02 654.0057931034485 590.02Q646.3600000000001 590.02 640.3800000000001 593.4Q634.4000000000001 596.78 631.1500000000001 602.76Q627.9000000000001 608.74 627.9000000000001 617.06V700.0Z M739.44 700.0V558.04H775.8400000000001V592.1L773.2400000000001 587.16Q777.9200000000001 569.22 788.71 562.85Q799.5000000000001 556.48 814.3200000000002 556.48H822.6400000000001V590.28H810.4200000000001Q796.1200000000001 590.28 787.2800000000001 598.99Q778.44 607.7 778.44 623.56V700.0Z"/></g></svg>